<?xml version="1.0" encoding="utf-8"?><svg width="256" height="176" viewBox="0 0 256 176" xmlns="http://www.w3.org/2000/svg" xmlns:xlink="http://www.w3.org/1999/xlink"><svg width="58" height="56" viewBox="-10 -10 58 56" id="Nicon_alarm" x="142"><path d="M36.8 31L33 24.5v-9.8C33 6.3 27 0 19 0S5 6.3 5 14.7v9.8L1.2 31H12c.9 3 3.6 5 7 5s6.1-2 7-5h10.8zM7 25V14.7C7 7.5 12.2 2 19 2s12 5.5 12 12.7V25l2.2 4H4.8L7 25zm12 9c-2.3 0-4.1-1.2-4.9-3h9.8c-.8 1.8-2.6 3-4.9 3z" fill="#FFF"/></svg><svg width="62" height="56" viewBox="-10 -10 62 56" id="Nicon_camera" x="76" y="64"><path d="M42 34H0V6h10.4l1.8-6h17.7l1.8 6H42v28zM2 32h38V8h-9.8l-1.8-6H13.6l-1.8 6H2v24z" fill="#FFF"/><path d="M21 27c-4.5 0-8-3.5-8-8s3.5-8 8-8 8 3.5 8 8c0 4.4-3.6 8-8 8zm0-14c-3.4 0-6 2.6-6 6s2.6 6 6 6c3.3 0 6-2.7 6-6 0-3.4-2.6-6-6-6z" fill="#FFF"/></svg><svg width="62" height="68" viewBox="-10 -10 62 68" id="Nicon_cart" y="52"><path d="M35.2 40H6.8c-.5 0-.9-.3-1-.8L0 15.2c-.1-.3 0-.6.2-.9.2-.2.5-.3.8-.3h40c.3 0 .6.1.8.4.2.2.3.6.2.9l-5.8 24c-.1.4-.5.7-1 .7zM7.6 38h26.8l5.3-22H2.3l5.3 22z" fill="#FFF"/><path fill="#FFF" d="M4.1 26h33.8v2H4.1z"/><path fill="#FFF" d="M20 15.6h2v23.9h-2z"/><g><path d="M31 39.3h-2V10c0-4.4-3.6-8-8-8s-8 3.6-8 8v29.3h-2V10c0-5.5 4.5-10 10-10s10 4.5 10 10v29.3z" fill="#FFF"/></g></svg><svg width="50" height="52" viewBox="-10 -10 50 52" id="Nicon_drawer" x="200" y="108"><path fill="#FFF" d="M0 1h30v2H0zM0 15h30v2H0zM0 29h30v2H0z"/></svg><svg width="66" height="64" viewBox="-10 -10 66 64" id="Nicon_home" x="76"><path fill="#FFF" d="M44.6 24.7L23 2.8 1.4 24.7 0 23.3 23 0l23 23.3z"/><path fill="#FFF" d="M5 18.4h2V40H5zM39 18.4h2V40h-2zM29 40h-2V27h-8v13h-2V25h12z"/></svg><svg width="58" height="56" viewBox="-10 -10 58 56" id="Nicon_logo" x="142" y="56"><path fill="#FFF" d="M25 36L12.8 17.4V36H0V0h13l12.2 18.6V0H38v36z"/></svg><svg width="76" height="52" viewBox="-10 -10 76 52" id="Nicon_my"><g fill="#FFF"><path d="M0 1h2.6l11.7 27.8h.1L25.9 1h2.6v29.8h-1.8V3.3h-.1L15.2 30.8h-1.8L1.9 3.3h-.1v27.6H0V1zM54 1h2L44 18.3v12.5h-1.8V18.3L30.3 1h2.1l10.8 15.8L54 1z"/></g></svg><svg width="56" height="56" viewBox="-10 -10 56 56" id="Nicon_search" x="58" y="120"><path d="M15 30C6.7 30 0 23.3 0 15S6.7 0 15 0s15 6.7 15 15-6.7 15-15 15zm0-28C7.8 2 2 7.8 2 15s5.8 13 13 13 13-5.8 13-13S22.2 2 15 2zM24.18 25.658l1.414-1.414L35.988 34.64l-1.414 1.413z" fill="#FFF"/></svg><svg width="56" height="56" viewBox="-10 -10 56 56" id="Nicon_search_active" x="114" y="120"><path d="M15 30C6.7 30 0 23.3 0 15S6.7 0 15 0s15 6.7 15 15-6.7 15-15 15zm0-28C7.8 2 2 7.8 2 15s5.8 13 13 13 13-5.8 13-13S22.2 2 15 2zM24.18 25.658l1.414-1.414L35.988 34.64l-1.414 1.413z"/></svg><svg width="56" height="56" viewBox="-10 -10 56 56" id="Nicon_setup" x="200"><path d="M22.3 36h-8.7l-1.5-5.5c-.8-.4-1.5-.8-2.3-1.3l-5.6 1.5L0 23.3l4.2-4.1c0-.4-.1-.8-.1-1.2 0-.4 0-.8.1-1.3l-4.2-4 4.3-7.4L10 6.8c.7-.5 1.4-.9 2.1-1.2L13.7 0h8.7l1.5 5.5c.8.3 1.5.8 2.3 1.3l5.6-1.5 4.3 7.4-4 4c0 .5.1.9.1 1.4 0 .4 0 .9-.1 1.3l4 3.9-4.3 7.4-5.5-1.4c-.8.5-1.6 1-2.4 1.4L22.3 36zm-7.1-2h5.6l1.3-4.9.5-.2c1-.4 1.9-.9 2.8-1.6l.4-.3 4.9 1.3 2.8-4.7-3.6-3.6.1-.5c.1-.5.1-1 .1-1.5s0-1.1-.1-1.6l-.1-.5 3.6-3.6-2.8-4.7-5 1.3-.4-.3c-.8-.6-1.7-1.1-2.7-1.5l-.5-.1-1.4-5h-5.6l-1.4 5-.5.2c-.9.4-1.8.9-2.5 1.5l-.2.3-5.2-1.4-2.8 4.7L6.3 16l-.1.5c-.1.5-.1 1-.1 1.5s0 .9.1 1.4l.1.5-3.8 3.7 2.8 4.7 5.1-1.3.4.3c.8.6 1.7 1.1 2.7 1.5l.5.2 1.2 5z" fill="#FFF"/><path d="M18 14c2.2 0 4 1.8 4 4s-1.8 4-4 4-4-1.8-4-4 1.8-4 4-4m0-2c-3.3 0-6 2.7-6 6s2.7 6 6 6 6-2.7 6-6-2.7-6-6-6z" fill="#FFF"/></svg><svg id="Nicon_talk" width="58" height="56" viewBox="-10 -10 58 56" y="120"><style>.kst0{fill:#FFF}</style><path class="kst0" d="M36.9 0H8.1C7.5 0 7 .5 7 1.1V11H1.1c-.6 0-1.1.5-1.1 1.1v15.8c0 .6.5 1.1 1.1 1.1H7v5.8c0 .5.3.9.7 1.1.4.2 1 .1 1.5-.5l4.9-6.4h8.8c.6 0 1.1-.5 1.1-1.1V25h1.4l5.7 6c.3.3.9.4 1.3.2.5-.2.6-.6.6-1.2v-5h3.9c.6 0 1.1-.6 1.1-1.2V1.1c0-.6-.5-1.1-1.1-1.1zM22 27h-8.4c-.3 0-.6 0-.9.4L9 32.3v-4.2c0-.6-.5-1.1-1.1-1.1H2V13h5v10.9c0 .6.5 1.1 1.1 1.1H22v2zm14-4h-3.9c-.6 0-1.1.5-1.1 1.1v4l-4.5-4.7c-.3-.3-.5-.4-.8-.4H9V2h27v21z"/><path class="kst0" d="M17 15c.6 0 1-.4 1-1v-4c0-.6-.4-1-1-1s-1 .4-1 1v4c0 .6.4 1 1 1zM27 15c.6 0 1-.4 1-1v-4c0-.6-.4-1-1-1s-1 .4-1 1v4c0 .6.4 1 1 1z"/></svg><svg width="54" height="52" viewBox="-10 -10 54 52" id="Nicon_write" x="200" y="56"><g fill="#FFF"><path d="M30.3 12.2c1.1-1.3 1.8-3 1.8-4.8C32 3.3 28.7 0 24.6 0c-1.7 0-3.4.6-4.8 1.8L0 21.5V32h10.5l19.8-19.8zM9.6 30H2v-7.7L17.4 7l7.6 7.6L9.6 30zm19.2-19.1l-2.3 2.3-7.6-7.6 2.3-2.3c1-.8 2.2-1.3 3.5-1.3 3 0 5.4 2.4 5.4 5.4-.1 1.3-.5 2.5-1.3 3.5zM16 30h18v2H16z"/></g></svg></svg>